<svg width="371" height="461" viewBox="0 0 371 461" fill="none" xmlns="http://www.w3.org/2000/svg">
<g clip-path="url(#clip0)">
<path d="M94.7726 89.2581C94.7726 89.2581 100.918 14.1182 130.294 83.8389C130.294 83.8389 110.606 258.818 98.9393 223.801C97.4809 219.737 94.7726 89.2581 94.7726 89.2581Z" fill="#3BB143"/>
<path d="M136.231 54.4498C149.348 54.4498 159.981 43.8115 159.981 30.6885C159.981 17.5655 149.348 6.92722 136.231 6.92722C123.114 6.92722 112.481 17.5655 112.481 30.6885C112.481 43.8115 123.114 54.4498 136.231 54.4498Z" fill="#3BB143"/>
<path d="M121.335 109.789C121.335 109.789 272.795 114.478 121.335 131.882Z" fill="#3BB143"/>
<path d="M264.67 89.4665C264.67 89.4665 258.524 14.3265 229.149 84.0472C229.149 84.0472 248.836 259.026 260.503 224.01C261.857 219.841 264.67 89.4665 264.67 89.4665Z" fill="#0880EC"/>
<path d="M223.211 54.7624C236.328 54.7624 246.961 44.1241 246.961 31.0011C246.961 17.8781 236.328 7.23984 223.211 7.23984C210.094 7.23984 199.461 17.8781 199.461 31.0011C199.461 44.1241 210.094 54.7624 223.211 54.7624Z" fill="#0880EC"/>
<path d="M238.628 109.997C238.628 109.997 87.1684 114.687 238.628 132.091Z" fill="#0880EC"/>
</g>
<path d="M67.0343 258.382H0V461H67.0343V258.382Z" fill="#0880EC"/>
<path d="M0 241.064H80.9034L157.184 357.439L350.196 169.484L371 192.574V104.83L297.031 111.18L320.146 127.921L162.963 272.236L112.109 202.965L0 241.064Z" fill="#3BB143"/>
<path d="M260.047 461H327.081V213.702L260.047 277.662V461Z" fill="#0880EC"/>
<path d="M0 0H67.0343V183.338V200.656L0 225.362V0Z" fill="#0880EC"/>
<path d="M0 258.382H67.0343V461L39.1804 276.508L0 258.382Z" fill="#1B6CA8"/>
<path d="M327.081 213.702L301.539 285.628L260.047 461V277.662L327.081 213.702Z" fill="#1B6CA8"/>
<path d="M0 241.064L105.637 213.702L164.581 297.52L320.146 127.921L162.963 272.236L112.109 202.965L0 241.064Z" fill="#328E34"/>
<path d="M67.0342 0H33.5171L50.2757 172.485L67.0342 200.656V0Z" fill="#1B6CA8"/>
<defs>
<clipPath id="clip0">
<rect width="169.897" height="221.668" fill="white" transform="translate(94.7726 6.92722)"/>
</clipPath>
</defs>
</svg>
